<svg xmlns="http://www.w3.org/2000/svg" version="1.1" xmlns:xlink="http://www.w3.org/1999/xlink" xmlns:svgjs="http://svgjs.dev/svgjs" width="1440" height="560" preserveAspectRatio="none" viewBox="0 0 1440 560"><g mask="url(&quot;#SvgjsMask1152&quot;)" fill="none"><rect width="1440" height="560" x="0" y="0" fill="url(&quot;#SvgjsLinearGradient1153&quot;)"></rect><path d="M-47.33 374.38L-47.33 374.38" stroke="#132e65" stroke-width="1.5"></path><path d="M-47.33 374.38L78.01 358.1" stroke="#132e65" stroke-width="1.5"></path><path d="M-47.33 374.38L-78.38 559.79" stroke="#132e65" stroke-width="1.5"></path><path d="M-47.33 374.38L248.24 395.08" stroke="#132e65" stroke-width="1.5"></path><path d="M-47.33 374.38L59.44 665.61" stroke="#132e65" stroke-width="1.5"></path><path d="M-78.38 559.79L-78.38 559.79" stroke="#132e65" stroke-width="1.5"></path><path d="M-78.38 559.79L-60 692.2" stroke="#132e65" stroke-width="1.5"></path><path d="M-78.38 559.79L59.44 665.61" stroke="#132e65" stroke-width="1.5"></path><path d="M-60 692.2L-60 692.2" stroke="#132e65" stroke-width="1.5"></path><path d="M-60 692.2L59.44 665.61" stroke="#132e65" stroke-width="1.5"></path><path d="M-60 692.2L229.49 686.16" stroke="#132e65" stroke-width="1.5"></path><path d="M-60 692.2L227.65 557.57" stroke="#132e65" stroke-width="1.5"></path><path d="M-60 692.2L-47.33 374.38" stroke="#132e65" stroke-width="1.5"></path><path d="M78.01 358.1L78.01 358.1" stroke="#132e65" stroke-width="1.5"></path><path d="M78.01 358.1L248.24 395.08" stroke="#132e65" stroke-width="1.5"></path><path d="M78.01 358.1L227.65 557.57" stroke="#132e65" stroke-width="1.5"></path><path d="M59.44 665.61L59.44 665.61" stroke="#132e65" stroke-width="1.5"></path><path d="M59.44 665.61L229.49 686.16" stroke="#132e65" stroke-width="1.5"></path><path d="M248.24 395.08L248.24 395.08" stroke="#132e65" stroke-width="1.5"></path><path d="M248.24 395.08L383.55 360.06" stroke="#132e65" stroke-width="1.5"></path><path d="M248.24 395.08L227.65 557.57" stroke="#132e65" stroke-width="1.5"></path><path d="M248.24 395.08L374.05 558.3" stroke="#132e65" stroke-width="1.5"></path><path d="M227.65 557.57L227.65 557.57" stroke="#132e65" stroke-width="1.5"></path><path d="M227.65 557.57L229.49 686.16" stroke="#132e65" stroke-width="1.5"></path><path d="M227.65 557.57L374.05 558.3" stroke="#132e65" stroke-width="1.5"></path><path d="M227.65 557.57L363.37 672.45" stroke="#132e65" stroke-width="1.5"></path><path d="M229.49 686.16L229.49 686.16" stroke="#132e65" stroke-width="1.5"></path><path d="M229.49 686.16L363.37 672.45" stroke="#132e65" stroke-width="1.5"></path><path d="M383.55 360.06L383.55 360.06" stroke="#132e65" stroke-width="1.5"></path><path d="M383.55 360.06L529.8 356.66" stroke="#132e65" stroke-width="1.5"></path><path d="M383.55 360.06L374.05 558.3" stroke="#132e65" stroke-width="1.5"></path><path d="M374.05 558.3L374.05 558.3" stroke="#132e65" stroke-width="1.5"></path><path d="M374.05 558.3L363.37 672.45" stroke="#132e65" stroke-width="1.5"></path><path d="M374.05 558.3L498.32 526.59" stroke="#132e65" stroke-width="1.5"></path><path d="M374.05 558.3L524.06 645.31" stroke="#132e65" stroke-width="1.5"></path><path d="M374.05 558.3L229.49 686.16" stroke="#132e65" stroke-width="1.5"></path><path d="M363.37 672.45L363.37 672.45" stroke="#132e65" stroke-width="1.5"></path><path d="M363.37 672.45L524.06 645.31" stroke="#132e65" stroke-width="1.5"></path><path d="M529.8 356.66L529.8 356.66" stroke="#132e65" stroke-width="1.5"></path><path d="M529.8 356.66L650.11 373.02" stroke="#132e65" stroke-width="1.5"></path><path d="M498.32 526.59L498.32 526.59" stroke="#132e65" stroke-width="1.5"></path><path d="M498.32 526.59L524.06 645.31" stroke="#132e65" stroke-width="1.5"></path><path d="M498.32 526.59L529.8 356.66" stroke="#132e65" stroke-width="1.5"></path><path d="M498.32 526.59L363.37 672.45" stroke="#132e65" stroke-width="1.5"></path><path d="M498.32 526.59L383.55 360.06" stroke="#132e65" stroke-width="1.5"></path><path d="M498.32 526.59L701.09 510.59" stroke="#132e65" stroke-width="1.5"></path><path d="M524.06 645.31L524.06 645.31" stroke="#132e65" stroke-width="1.5"></path><path d="M524.06 645.31L672.26 702.07" stroke="#132e65" stroke-width="1.5"></path><path d="M697.24 226.54L697.24 226.54" stroke="#132e65" stroke-width="1.5"></path><path d="M697.24 226.54L813.94 257.29" stroke="#132e65" stroke-width="1.5"></path><path d="M697.24 226.54L650.11 373.02" stroke="#132e65" stroke-width="1.5"></path><path d="M697.24 226.54L793.16 400.82" stroke="#132e65" stroke-width="1.5"></path><path d="M697.24 226.54L529.8 356.66" stroke="#132e65" stroke-width="1.5"></path><path d="M650.11 373.02L650.11 373.02" stroke="#132e65" stroke-width="1.5"></path><path d="M701.09 510.59L701.09 510.59" stroke="#132e65" stroke-width="1.5"></path><path d="M701.09 510.59L821.2 551.44" stroke="#132e65" stroke-width="1.5"></path><path d="M701.09 510.59L793.16 400.82" stroke="#132e65" stroke-width="1.5"></path><path d="M701.09 510.59L650.11 373.02" stroke="#132e65" stroke-width="1.5"></path><path d="M672.26 702.07L672.26 702.07" stroke="#132e65" stroke-width="1.5"></path><path d="M672.26 702.07L841.76 662.62" stroke="#132e65" stroke-width="1.5"></path><path d="M672.26 702.07L701.09 510.59" stroke="#132e65" stroke-width="1.5"></path><path d="M672.26 702.07L821.2 551.44" stroke="#132e65" stroke-width="1.5"></path><path d="M672.26 702.07L498.32 526.59" stroke="#132e65" stroke-width="1.5"></path><path d="M672.26 702.07L971.05 703.25" stroke="#132e65" stroke-width="1.5"></path><path d="M861.85 40.4L861.85 40.4" stroke="#132e65" stroke-width="1.5"></path><path d="M861.85 40.4L966.78 73.64" stroke="#132e65" stroke-width="1.5"></path><path d="M861.85 40.4L944.76 -63.88" stroke="#132e65" stroke-width="1.5"></path><path d="M861.85 40.4L813.94 257.29" stroke="#132e65" stroke-width="1.5"></path><path d="M861.85 40.4L968.52 255.71" stroke="#132e65" stroke-width="1.5"></path><path d="M813.94 257.29L813.94 257.29" stroke="#132e65" stroke-width="1.5"></path><path d="M813.94 257.29L793.16 400.82" stroke="#132e65" stroke-width="1.5"></path><path d="M813.94 257.29L968.52 255.71" stroke="#132e65" stroke-width="1.5"></path><path d="M813.94 257.29L650.11 373.02" stroke="#132e65" stroke-width="1.5"></path><path d="M793.16 400.82L793.16 400.82" stroke="#132e65" stroke-width="1.5"></path><path d="M793.16 400.82L650.11 373.02" stroke="#132e65" stroke-width="1.5"></path><path d="M793.16 400.82L821.2 551.44" stroke="#132e65" stroke-width="1.5"></path><path d="M793.16 400.82L1007.7 380.47" stroke="#132e65" stroke-width="1.5"></path><path d="M821.2 551.44L821.2 551.44" stroke="#132e65" stroke-width="1.5"></path><path d="M821.2 551.44L841.76 662.62" stroke="#132e65" stroke-width="1.5"></path><path d="M821.2 551.44L1007.29 535.44" stroke="#132e65" stroke-width="1.5"></path><path d="M841.76 662.62L841.76 662.62" stroke="#132e65" stroke-width="1.5"></path><path d="M841.76 662.62L971.05 703.25" stroke="#132e65" stroke-width="1.5"></path><path d="M841.76 662.62L701.09 510.59" stroke="#132e65" stroke-width="1.5"></path><path d="M841.76 662.62L1007.29 535.44" stroke="#132e65" stroke-width="1.5"></path><path d="M841.76 662.62L793.16 400.82" stroke="#132e65" stroke-width="1.5"></path><path d="M944.76 -63.88L944.76 -63.88" stroke="#132e65" stroke-width="1.5"></path><path d="M966.78 73.64L966.78 73.64" stroke="#132e65" stroke-width="1.5"></path><path d="M966.78 73.64L944.76 -63.88" stroke="#132e65" stroke-width="1.5"></path><path d="M966.78 73.64L968.52 255.71" stroke="#132e65" stroke-width="1.5"></path><path d="M966.78 73.64L1153.44 79.63" stroke="#132e65" stroke-width="1.5"></path><path d="M968.52 255.71L968.52 255.71" stroke="#132e65" stroke-width="1.5"></path><path d="M968.52 255.71L1007.7 380.47" stroke="#132e65" stroke-width="1.5"></path><path d="M968.52 255.71L1116.13 187.54" stroke="#132e65" stroke-width="1.5"></path><path d="M968.52 255.71L1128.63 358.05" stroke="#132e65" stroke-width="1.5"></path><path d="M968.52 255.71L793.16 400.82" stroke="#132e65" stroke-width="1.5"></path><path d="M1007.7 380.47L1007.7 380.47" stroke="#132e65" stroke-width="1.5"></path><path d="M1007.7 380.47L1128.63 358.05" stroke="#132e65" stroke-width="1.5"></path><path d="M1007.7 380.47L1007.29 535.44" stroke="#132e65" stroke-width="1.5"></path><path d="M1007.7 380.47L1159.06 510.85" stroke="#132e65" stroke-width="1.5"></path><path d="M1007.29 535.44L1007.29 535.44" stroke="#132e65" stroke-width="1.5"></path><path d="M1007.29 535.44L1159.06 510.85" stroke="#132e65" stroke-width="1.5"></path><path d="M971.05 703.25L971.05 703.25" stroke="#132e65" stroke-width="1.5"></path><path d="M971.05 703.25L1007.29 535.44" stroke="#132e65" stroke-width="1.5"></path><path d="M971.05 703.25L1148.97 699.65" stroke="#132e65" stroke-width="1.5"></path><path d="M971.05 703.25L821.2 551.44" stroke="#132e65" stroke-width="1.5"></path><path d="M1116.97 -68.84L1116.97 -68.84" stroke="#132e65" stroke-width="1.5"></path><path d="M1116.97 -68.84L1153.44 79.63" stroke="#132e65" stroke-width="1.5"></path><path d="M1116.97 -68.84L944.76 -63.88" stroke="#132e65" stroke-width="1.5"></path><path d="M1116.97 -68.84L1293.71 -104.65" stroke="#132e65" stroke-width="1.5"></path><path d="M1116.97 -68.84L966.78 73.64" stroke="#132e65" stroke-width="1.5"></path><path d="M1153.44 79.63L1153.44 79.63" stroke="#132e65" stroke-width="1.5"></path><path d="M1153.44 79.63L1116.13 187.54" stroke="#132e65" stroke-width="1.5"></path><path d="M1153.44 79.63L1262.98 212.24" stroke="#132e65" stroke-width="1.5"></path><path d="M1116.13 187.54L1116.13 187.54" stroke="#132e65" stroke-width="1.5"></path><path d="M1116.13 187.54L1262.98 212.24" stroke="#132e65" stroke-width="1.5"></path><path d="M1128.63 358.05L1128.63 358.05" stroke="#132e65" stroke-width="1.5"></path><path d="M1128.63 358.05L1159.06 510.85" stroke="#132e65" stroke-width="1.5"></path><path d="M1128.63 358.05L1285.74 409.58" stroke="#132e65" stroke-width="1.5"></path><path d="M1128.63 358.05L1116.13 187.54" stroke="#132e65" stroke-width="1.5"></path><path d="M1159.06 510.85L1159.06 510.85" stroke="#132e65" stroke-width="1.5"></path><path d="M1159.06 510.85L1285.36 548.07" stroke="#132e65" stroke-width="1.5"></path><path d="M1148.97 699.65L1148.97 699.65" stroke="#132e65" stroke-width="1.5"></path><path d="M1148.97 699.65L1159.06 510.85" stroke="#132e65" stroke-width="1.5"></path><path d="M1148.97 699.65L1285.36 548.07" stroke="#132e65" stroke-width="1.5"></path><path d="M1293.71 -104.65L1293.71 -104.65" stroke="#132e65" stroke-width="1.5"></path><path d="M1293.71 -104.65L1393.66 -73.43" stroke="#132e65" stroke-width="1.5"></path><path d="M1262.98 212.24L1262.98 212.24" stroke="#132e65" stroke-width="1.5"></path><path d="M1285.74 409.58L1285.74 409.58" stroke="#132e65" stroke-width="1.5"></path><path d="M1285.74 409.58L1285.36 548.07" stroke="#132e65" stroke-width="1.5"></path><path d="M1285.74 409.58L1430.83 395.31" stroke="#132e65" stroke-width="1.5"></path><path d="M1285.74 409.58L1159.06 510.85" stroke="#132e65" stroke-width="1.5"></path><path d="M1285.74 409.58L1262.98 212.24" stroke="#132e65" stroke-width="1.5"></path><path d="M1285.74 409.58L1446.67 257.51" stroke="#132e65" stroke-width="1.5"></path><path d="M1285.36 548.07L1285.36 548.07" stroke="#132e65" stroke-width="1.5"></path><path d="M1285.36 548.07L1461.25 553.01" stroke="#132e65" stroke-width="1.5"></path><path d="M1285.36 548.07L1430.83 395.31" stroke="#132e65" stroke-width="1.5"></path><path d="M1393.66 -73.43L1393.66 -73.43" stroke="#132e65" stroke-width="1.5"></path><path d="M1393.66 -73.43L1440.06 84.73" stroke="#132e65" stroke-width="1.5"></path><path d="M1393.66 -73.43L1585.99 -93.83" stroke="#132e65" stroke-width="1.5"></path><path d="M1393.66 -73.43L1589.29 97.08" stroke="#132e65" stroke-width="1.5"></path><path d="M1393.66 -73.43L1116.97 -68.84" stroke="#132e65" stroke-width="1.5"></path><path d="M1393.66 -73.43L1153.44 79.63" stroke="#132e65" stroke-width="1.5"></path><path d="M1440.06 84.73L1440.06 84.73" stroke="#132e65" stroke-width="1.5"></path><path d="M1440.06 84.73L1589.29 97.08" stroke="#132e65" stroke-width="1.5"></path><path d="M1440.06 84.73L1549.18 200.8" stroke="#132e65" stroke-width="1.5"></path><path d="M1440.06 84.73L1446.67 257.51" stroke="#132e65" stroke-width="1.5"></path><path d="M1440.06 84.73L1262.98 212.24" stroke="#132e65" stroke-width="1.5"></path><path d="M1440.06 84.73L1585.99 -93.83" stroke="#132e65" stroke-width="1.5"></path><path d="M1446.67 257.51L1446.67 257.51" stroke="#132e65" stroke-width="1.5"></path><path d="M1446.67 257.51L1549.18 200.8" stroke="#132e65" stroke-width="1.5"></path><path d="M1446.67 257.51L1430.83 395.31" stroke="#132e65" stroke-width="1.5"></path><path d="M1446.67 257.51L1561.37 351.23" stroke="#132e65" stroke-width="1.5"></path><path d="M1430.83 395.31L1430.83 395.31" stroke="#132e65" stroke-width="1.5"></path><path d="M1430.83 395.31L1561.37 351.23" stroke="#132e65" stroke-width="1.5"></path><path d="M1430.83 395.31L1461.25 553.01" stroke="#132e65" stroke-width="1.5"></path><path d="M1430.83 395.31L1549.18 200.8" stroke="#132e65" stroke-width="1.5"></path><path d="M1461.25 553.01L1461.25 553.01" stroke="#132e65" stroke-width="1.5"></path><path d="M1461.25 553.01L1446.87 685.26" stroke="#132e65" stroke-width="1.5"></path><path d="M1461.25 553.01L1574.3 641.54" stroke="#132e65" stroke-width="1.5"></path><path d="M1446.87 685.26L1446.87 685.26" stroke="#132e65" stroke-width="1.5"></path><path d="M1446.87 685.26L1574.3 641.54" stroke="#132e65" stroke-width="1.5"></path><path d="M1585.99 -93.83L1585.99 -93.83" stroke="#132e65" stroke-width="1.5"></path><path d="M1585.99 -93.83L1589.29 97.08" stroke="#132e65" stroke-width="1.5"></path><path d="M1585.99 -93.83L1293.71 -104.65" stroke="#132e65" stroke-width="1.5"></path><path d="M1585.99 -93.83L1549.18 200.8" stroke="#132e65" stroke-width="1.5"></path><path d="M1589.29 97.08L1589.29 97.08" stroke="#132e65" stroke-width="1.5"></path><path d="M1589.29 97.08L1549.18 200.8" stroke="#132e65" stroke-width="1.5"></path><path d="M1589.29 97.08L1446.67 257.51" stroke="#132e65" stroke-width="1.5"></path><path d="M1589.29 97.08L1561.37 351.23" stroke="#132e65" stroke-width="1.5"></path><path d="M1549.18 200.8L1549.18 200.8" stroke="#132e65" stroke-width="1.5"></path><path d="M1549.18 200.8L1561.37 351.23" stroke="#132e65" stroke-width="1.5"></path><path d="M1561.37 351.23L1561.37 351.23" stroke="#132e65" stroke-width="1.5"></path><path d="M1561.37 351.23L1461.25 553.01" stroke="#132e65" stroke-width="1.5"></path><path d="M1561.37 351.23L1285.74 409.58" stroke="#132e65" stroke-width="1.5"></path><path d="M1574.3 641.54L1574.3 641.54" stroke="#132e65" stroke-width="1.5"></path><path d="M1574.3 641.54L1430.83 395.31" stroke="#132e65" stroke-width="1.5"></path><circle r="5" cx="-47.33" cy="374.38" fill="#132e65"></circle><circle r="5" cx="-78.38" cy="559.79" fill="#132e65"></circle><circle r="5" cx="-60" cy="692.2" fill="#132e65"></circle><circle r="5" cx="78.01" cy="358.1" fill="#132e65"></circle><circle r="5" cx="59.44" cy="665.61" fill="#132e65"></circle><circle r="5" cx="248.24" cy="395.08" fill="#132e65"></circle><circle r="5" cx="227.65" cy="557.57" fill="#132e65"></circle><circle r="5" cx="229.49" cy="686.16" fill="#132e65"></circle><circle r="5" cx="383.55" cy="360.06" fill="#132e65"></circle><circle r="5" cx="374.05" cy="558.3" fill="#132e65"></circle><circle r="5" cx="363.37" cy="672.45" fill="#132e65"></circle><circle r="5" cx="529.8" cy="356.66" fill="#132e65"></circle><circle r="5" cx="498.32" cy="526.59" fill="#132e65"></circle><circle r="5" cx="524.06" cy="645.31" fill="#132e65"></circle><circle r="5" cx="697.24" cy="226.54" fill="#132e65"></circle><circle r="5" cx="650.11" cy="373.02" fill="#132e65"></circle><circle r="5" cx="701.09" cy="510.59" fill="#132e65"></circle><circle r="5" cx="672.26" cy="702.07" fill="#132e65"></circle><circle r="5" cx="861.85" cy="40.4" fill="#132e65"></circle><circle r="5" cx="813.94" cy="257.29" fill="#132e65"></circle><circle r="5" cx="793.16" cy="400.82" fill="#132e65"></circle><circle r="5" cx="821.2" cy="551.44" fill="#132e65"></circle><circle r="5" cx="841.76" cy="662.62" fill="#132e65"></circle><circle r="5" cx="944.76" cy="-63.88" fill="#132e65"></circle><circle r="5" cx="966.78" cy="73.64" fill="#132e65"></circle><circle r="5" cx="968.52" cy="255.71" fill="#132e65"></circle><circle r="5" cx="1007.7" cy="380.47" fill="#132e65"></circle><circle r="5" cx="1007.29" cy="535.44" fill="#132e65"></circle><circle r="5" cx="971.05" cy="703.25" fill="#132e65"></circle><circle r="5" cx="1116.97" cy="-68.84" fill="#132e65"></circle><circle r="5" cx="1153.44" cy="79.63" fill="#132e65"></circle><circle r="5" cx="1116.13" cy="187.54" fill="#132e65"></circle><circle r="5" cx="1128.63" cy="358.05" fill="#132e65"></circle><circle r="5" cx="1159.06" cy="510.85" fill="#132e65"></circle><circle r="5" cx="1148.97" cy="699.65" fill="#132e65"></circle><circle r="5" cx="1293.71" cy="-104.65" fill="#132e65"></circle><circle r="5" cx="1262.98" cy="212.24" fill="#132e65"></circle><circle r="5" cx="1285.74" cy="409.58" fill="#132e65"></circle><circle r="5" cx="1285.36" cy="548.07" fill="#132e65"></circle><circle r="5" cx="1393.66" cy="-73.43" fill="#132e65"></circle><circle r="5" cx="1440.06" cy="84.73" fill="#132e65"></circle><circle r="5" cx="1446.67" cy="257.51" fill="#132e65"></circle><circle r="5" cx="1430.83" cy="395.31" fill="#132e65"></circle><circle r="5" cx="1461.25" cy="553.01" fill="#132e65"></circle><circle r="5" cx="1446.87" cy="685.26" fill="#132e65"></circle><circle r="5" cx="1585.99" cy="-93.83" fill="#132e65"></circle><circle r="5" cx="1589.29" cy="97.08" fill="#132e65"></circle><circle r="5" cx="1549.18" cy="200.8" fill="#132e65"></circle><circle r="5" cx="1561.37" cy="351.23" fill="#132e65"></circle><circle r="5" cx="1574.3" cy="641.54" fill="#132e65"></circle><path d="M847.05 388.73L847.05 388.73" stroke="hsl(228.5, 77.2%, 51.5%)" stroke-width="1.5"></path><path d="M847.05 388.73L973.6 358.56" stroke="hsl(228.5, 77.2%, 51.5%)" stroke-width="1.5"></path><path d="M847.05 388.73L816.61 530.8" stroke="hsl(228.5, 77.2%, 51.5%)" stroke-width="1.5"></path><path d="M1161.47 410.79L1161.47 410.79" stroke="hsl(228.5, 77.2%, 51.5%)" stroke-width="1.5"></path><path d="M1161.47 410.79L1108.02 538.29" stroke="hsl(228.5, 77.2%, 51.5%)" stroke-width="1.5"></path><path d="M1161.47 410.79L1279.86 500.01" stroke="hsl(228.5, 77.2%, 51.5%)" stroke-width="1.5"></path><path d="M1279.86 500.01L1279.86 500.01" stroke="hsl(228.5, 77.2%, 51.5%)" stroke-width="1.5"></path><path d="M1279.86 500.01L1310.11 362.96" stroke="hsl(228.5, 77.2%, 51.5%)" stroke-width="1.5"></path><path d="M1279.86 500.01L1442.27 495.24" stroke="hsl(228.5, 77.2%, 51.5%)" stroke-width="1.5"></path><path d="M1279.86 500.01L1108.02 538.29" stroke="hsl(228.5, 77.2%, 51.5%)" stroke-width="1.5"></path><path d="M1279.86 500.01L1438.22 388.29" stroke="hsl(228.5, 77.2%, 51.5%)" stroke-width="1.5"></path><path d="M1395.29 -92.46L1395.29 -92.46" stroke="hsl(228.5, 77.2%, 51.5%)" stroke-width="1.5"></path><path d="M1395.29 -92.46L1290.85 -56.23" stroke="hsl(228.5, 77.2%, 51.5%)" stroke-width="1.5"></path><path d="M1395.29 -92.46L1452.43 60.01" stroke="hsl(228.5, 77.2%, 51.5%)" stroke-width="1.5"></path><path d="M1442.27 495.24L1442.27 495.24" stroke="hsl(228.5, 77.2%, 51.5%)" stroke-width="1.5"></path><path d="M1442.27 495.24L1438.22 388.29" stroke="hsl(228.5, 77.2%, 51.5%)" stroke-width="1.5"></path><path d="M1401.18 653.84L1401.18 653.84" stroke="hsl(228.5, 77.2%, 51.5%)" stroke-width="1.5"></path><path d="M1401.18 653.84L1442.27 495.24" stroke="hsl(228.5, 77.2%, 51.5%)" stroke-width="1.5"></path><path d="M1401.18 653.84L1578.99 648.49" stroke="hsl(228.5, 77.2%, 51.5%)" stroke-width="1.5"></path><path d="M1401.18 653.84L1279.86 500.01" stroke="hsl(228.5, 77.2%, 51.5%)" stroke-width="1.5"></path><path d="M-63.92 492.38L-63.92 492.38" stroke="hsl(228.5, 77.2%, 51.5%)" stroke-width="1.5"></path><path d="M-63.92 492.38L84.8 539.82" stroke="hsl(228.5, 77.2%, 51.5%)" stroke-width="1.5"></path><path d="M-63.92 492.38L73.14 693.37" stroke="hsl(228.5, 77.2%, 51.5%)" stroke-width="1.5"></path><path d="M-63.92 492.38L217.61 517.03" stroke="hsl(228.5, 77.2%, 51.5%)" stroke-width="1.5"></path><path d="M-63.92 492.38L228.57 658.35" stroke="hsl(228.5, 77.2%, 51.5%)" stroke-width="1.5"></path><path d="M84.8 539.82L84.8 539.82" stroke="hsl(228.5, 77.2%, 51.5%)" stroke-width="1.5"></path><path d="M84.8 539.82L217.61 517.03" stroke="hsl(228.5, 77.2%, 51.5%)" stroke-width="1.5"></path><path d="M84.8 539.82L73.14 693.37" stroke="hsl(228.5, 77.2%, 51.5%)" stroke-width="1.5"></path><path d="M73.14 693.37L73.14 693.37" stroke="hsl(228.5, 77.2%, 51.5%)" stroke-width="1.5"></path><path d="M73.14 693.37L228.57 658.35" stroke="hsl(228.5, 77.2%, 51.5%)" stroke-width="1.5"></path><path d="M217.61 517.03L217.61 517.03" stroke="hsl(228.5, 77.2%, 51.5%)" stroke-width="1.5"></path><path d="M217.61 517.03L345.18 505.28" stroke="hsl(228.5, 77.2%, 51.5%)" stroke-width="1.5"></path><path d="M228.57 658.35L228.57 658.35" stroke="hsl(228.5, 77.2%, 51.5%)" stroke-width="1.5"></path><path d="M228.57 658.35L217.61 517.03" stroke="hsl(228.5, 77.2%, 51.5%)" stroke-width="1.5"></path><path d="M228.57 658.35L379.62 694.28" stroke="hsl(228.5, 77.2%, 51.5%)" stroke-width="1.5"></path><path d="M345.18 505.28L345.18 505.28" stroke="hsl(228.5, 77.2%, 51.5%)" stroke-width="1.5"></path><path d="M345.18 505.28L379.62 694.28" stroke="hsl(228.5, 77.2%, 51.5%)" stroke-width="1.5"></path><path d="M345.18 505.28L228.57 658.35" stroke="hsl(228.5, 77.2%, 51.5%)" stroke-width="1.5"></path><path d="M345.18 505.28L504.86 649.74" stroke="hsl(228.5, 77.2%, 51.5%)" stroke-width="1.5"></path><path d="M345.18 505.28L84.8 539.82" stroke="hsl(228.5, 77.2%, 51.5%)" stroke-width="1.5"></path><path d="M379.62 694.28L379.62 694.28" stroke="hsl(228.5, 77.2%, 51.5%)" stroke-width="1.5"></path><path d="M379.62 694.28L504.86 649.74" stroke="hsl(228.5, 77.2%, 51.5%)" stroke-width="1.5"></path><path d="M504.86 649.74L504.86 649.74" stroke="hsl(228.5, 77.2%, 51.5%)" stroke-width="1.5"></path><path d="M504.86 649.74L695.04 650.33" stroke="hsl(228.5, 77.2%, 51.5%)" stroke-width="1.5"></path><path d="M656.22 376.88L656.22 376.88" stroke="hsl(228.5, 77.2%, 51.5%)" stroke-width="1.5"></path><path d="M656.22 376.88L847.05 388.73" stroke="hsl(228.5, 77.2%, 51.5%)" stroke-width="1.5"></path><path d="M656.22 376.88L816.61 530.8" stroke="hsl(228.5, 77.2%, 51.5%)" stroke-width="1.5"></path><path d="M656.22 376.88L695.04 650.33" stroke="hsl(228.5, 77.2%, 51.5%)" stroke-width="1.5"></path><path d="M656.22 376.88L504.86 649.74" stroke="hsl(228.5, 77.2%, 51.5%)" stroke-width="1.5"></path><path d="M695.04 650.33L695.04 650.33" stroke="hsl(228.5, 77.2%, 51.5%)" stroke-width="1.5"></path><path d="M695.04 650.33L816.61 530.8" stroke="hsl(228.5, 77.2%, 51.5%)" stroke-width="1.5"></path><path d="M695.04 650.33L860.45 692.61" stroke="hsl(228.5, 77.2%, 51.5%)" stroke-width="1.5"></path><path d="M816.61 530.8L816.61 530.8" stroke="hsl(228.5, 77.2%, 51.5%)" stroke-width="1.5"></path><path d="M816.61 530.8L960.05 548.63" stroke="hsl(228.5, 77.2%, 51.5%)" stroke-width="1.5"></path><path d="M816.61 530.8L860.45 692.61" stroke="hsl(228.5, 77.2%, 51.5%)" stroke-width="1.5"></path><path d="M860.45 692.61L860.45 692.61" stroke="hsl(228.5, 77.2%, 51.5%)" stroke-width="1.5"></path><path d="M860.45 692.61L960.24 686.33" stroke="hsl(228.5, 77.2%, 51.5%)" stroke-width="1.5"></path><path d="M860.45 692.61L960.05 548.63" stroke="hsl(228.5, 77.2%, 51.5%)" stroke-width="1.5"></path><path d="M860.45 692.61L1136.7 690.66" stroke="hsl(228.5, 77.2%, 51.5%)" stroke-width="1.5"></path><path d="M860.45 692.61L1108.02 538.29" stroke="hsl(228.5, 77.2%, 51.5%)" stroke-width="1.5"></path><path d="M1006.28 262.38L1006.28 262.38" stroke="hsl(228.5, 77.2%, 51.5%)" stroke-width="1.5"></path><path d="M1006.28 262.38L973.6 358.56" stroke="hsl(228.5, 77.2%, 51.5%)" stroke-width="1.5"></path><path d="M1006.28 262.38L1121.01 210.98" stroke="hsl(228.5, 77.2%, 51.5%)" stroke-width="1.5"></path><path d="M1006.28 262.38L847.05 388.73" stroke="hsl(228.5, 77.2%, 51.5%)" stroke-width="1.5"></path><path d="M1006.28 262.38L1161.47 410.79" stroke="hsl(228.5, 77.2%, 51.5%)" stroke-width="1.5"></path><path d="M1006.28 262.38L960.05 548.63" stroke="hsl(228.5, 77.2%, 51.5%)" stroke-width="1.5"></path><path d="M1006.28 262.38L1108.02 538.29" stroke="hsl(228.5, 77.2%, 51.5%)" stroke-width="1.5"></path><path d="M973.6 358.56L973.6 358.56" stroke="hsl(228.5, 77.2%, 51.5%)" stroke-width="1.5"></path><path d="M960.05 548.63L960.05 548.63" stroke="hsl(228.5, 77.2%, 51.5%)" stroke-width="1.5"></path><path d="M960.05 548.63L960.24 686.33" stroke="hsl(228.5, 77.2%, 51.5%)" stroke-width="1.5"></path><path d="M960.05 548.63L1108.02 538.29" stroke="hsl(228.5, 77.2%, 51.5%)" stroke-width="1.5"></path><path d="M960.24 686.33L960.24 686.33" stroke="hsl(228.5, 77.2%, 51.5%)" stroke-width="1.5"></path><path d="M960.24 686.33L1136.7 690.66" stroke="hsl(228.5, 77.2%, 51.5%)" stroke-width="1.5"></path><path d="M960.24 686.33L1108.02 538.29" stroke="hsl(228.5, 77.2%, 51.5%)" stroke-width="1.5"></path><path d="M960.24 686.33L816.61 530.8" stroke="hsl(228.5, 77.2%, 51.5%)" stroke-width="1.5"></path><path d="M960.24 686.33L695.04 650.33" stroke="hsl(228.5, 77.2%, 51.5%)" stroke-width="1.5"></path><path d="M1121.01 210.98L1121.01 210.98" stroke="hsl(228.5, 77.2%, 51.5%)" stroke-width="1.5"></path><path d="M1121.01 210.98L1296.45 194.61" stroke="hsl(228.5, 77.2%, 51.5%)" stroke-width="1.5"></path><path d="M1121.01 210.98L1285.84 92.71" stroke="hsl(228.5, 77.2%, 51.5%)" stroke-width="1.5"></path><path d="M1108.02 538.29L1108.02 538.29" stroke="hsl(228.5, 77.2%, 51.5%)" stroke-width="1.5"></path><path d="M1108.02 538.29L1136.7 690.66" stroke="hsl(228.5, 77.2%, 51.5%)" stroke-width="1.5"></path><path d="M1136.7 690.66L1136.7 690.66" stroke="hsl(228.5, 77.2%, 51.5%)" stroke-width="1.5"></path><path d="M1136.7 690.66L960.05 548.63" stroke="hsl(228.5, 77.2%, 51.5%)" stroke-width="1.5"></path><path d="M1136.7 690.66L1279.86 500.01" stroke="hsl(228.5, 77.2%, 51.5%)" stroke-width="1.5"></path><path d="M1136.7 690.66L1401.18 653.84" stroke="hsl(228.5, 77.2%, 51.5%)" stroke-width="1.5"></path><path d="M1290.85 -56.23L1290.85 -56.23" stroke="hsl(228.5, 77.2%, 51.5%)" stroke-width="1.5"></path><path d="M1290.85 -56.23L1285.84 92.71" stroke="hsl(228.5, 77.2%, 51.5%)" stroke-width="1.5"></path><path d="M1285.84 92.71L1285.84 92.71" stroke="hsl(228.5, 77.2%, 51.5%)" stroke-width="1.5"></path><path d="M1285.84 92.71L1296.45 194.61" stroke="hsl(228.5, 77.2%, 51.5%)" stroke-width="1.5"></path><path d="M1285.84 92.71L1452.43 60.01" stroke="hsl(228.5, 77.2%, 51.5%)" stroke-width="1.5"></path><path d="M1285.84 92.71L1403.02 221.66" stroke="hsl(228.5, 77.2%, 51.5%)" stroke-width="1.5"></path><path d="M1285.84 92.71L1395.29 -92.46" stroke="hsl(228.5, 77.2%, 51.5%)" stroke-width="1.5"></path><path d="M1296.45 194.61L1296.45 194.61" stroke="hsl(228.5, 77.2%, 51.5%)" stroke-width="1.5"></path><path d="M1296.45 194.61L1403.02 221.66" stroke="hsl(228.5, 77.2%, 51.5%)" stroke-width="1.5"></path><path d="M1310.11 362.96L1310.11 362.96" stroke="hsl(228.5, 77.2%, 51.5%)" stroke-width="1.5"></path><path d="M1310.11 362.96L1438.22 388.29" stroke="hsl(228.5, 77.2%, 51.5%)" stroke-width="1.5"></path><path d="M1310.11 362.96L1161.47 410.79" stroke="hsl(228.5, 77.2%, 51.5%)" stroke-width="1.5"></path><path d="M1310.11 362.96L1296.45 194.61" stroke="hsl(228.5, 77.2%, 51.5%)" stroke-width="1.5"></path><path d="M1452.43 60.01L1452.43 60.01" stroke="hsl(228.5, 77.2%, 51.5%)" stroke-width="1.5"></path><path d="M1452.43 60.01L1597.65 63.31" stroke="hsl(228.5, 77.2%, 51.5%)" stroke-width="1.5"></path><path d="M1452.43 60.01L1561.13 -60.85" stroke="hsl(228.5, 77.2%, 51.5%)" stroke-width="1.5"></path><path d="M1452.43 60.01L1403.02 221.66" stroke="hsl(228.5, 77.2%, 51.5%)" stroke-width="1.5"></path><path d="M1403.02 221.66L1403.02 221.66" stroke="hsl(228.5, 77.2%, 51.5%)" stroke-width="1.5"></path><path d="M1403.02 221.66L1553.72 245.25" stroke="hsl(228.5, 77.2%, 51.5%)" stroke-width="1.5"></path><path d="M1403.02 221.66L1310.11 362.96" stroke="hsl(228.5, 77.2%, 51.5%)" stroke-width="1.5"></path><path d="M1438.22 388.29L1438.22 388.29" stroke="hsl(228.5, 77.2%, 51.5%)" stroke-width="1.5"></path><path d="M1561.13 -60.85L1561.13 -60.85" stroke="hsl(228.5, 77.2%, 51.5%)" stroke-width="1.5"></path><path d="M1561.13 -60.85L1597.65 63.31" stroke="hsl(228.5, 77.2%, 51.5%)" stroke-width="1.5"></path><path d="M1597.65 63.31L1597.65 63.31" stroke="hsl(228.5, 77.2%, 51.5%)" stroke-width="1.5"></path><path d="M1553.72 245.25L1553.72 245.25" stroke="hsl(228.5, 77.2%, 51.5%)" stroke-width="1.5"></path><path d="M1553.72 245.25L1602.54 344.69" stroke="hsl(228.5, 77.2%, 51.5%)" stroke-width="1.5"></path><path d="M1602.54 344.69L1602.54 344.69" stroke="hsl(228.5, 77.2%, 51.5%)" stroke-width="1.5"></path><path d="M1602.54 344.69L1438.22 388.29" stroke="hsl(228.5, 77.2%, 51.5%)" stroke-width="1.5"></path><path d="M1602.54 344.69L1442.27 495.24" stroke="hsl(228.5, 77.2%, 51.5%)" stroke-width="1.5"></path><path d="M1602.54 344.69L1403.02 221.66" stroke="hsl(228.5, 77.2%, 51.5%)" stroke-width="1.5"></path><path d="M1602.54 344.69L1597.65 63.31" stroke="hsl(228.5, 77.2%, 51.5%)" stroke-width="1.5"></path><path d="M1602.54 344.69L1310.11 362.96" stroke="hsl(228.5, 77.2%, 51.5%)" stroke-width="1.5"></path><path d="M1578.99 648.49L1578.99 648.49" stroke="hsl(228.5, 77.2%, 51.5%)" stroke-width="1.5"></path><path d="M1578.99 648.49L1442.27 495.24" stroke="hsl(228.5, 77.2%, 51.5%)" stroke-width="1.5"></path><path d="M1578.99 648.49L1438.22 388.29" stroke="hsl(228.5, 77.2%, 51.5%)" stroke-width="1.5"></path><path d="M1578.99 648.49L1602.54 344.69" stroke="hsl(228.5, 77.2%, 51.5%)" stroke-width="1.5"></path><circle r="25" cx="847.05" cy="388.73" fill="url(&quot;#SvgjsRadialGradient1154&quot;)"></circle><circle r="25" cx="1161.47" cy="410.79" fill="url(&quot;#SvgjsRadialGradient1154&quot;)"></circle><circle r="25" cx="1279.86" cy="500.01" fill="url(&quot;#SvgjsRadialGradient1154&quot;)"></circle><circle r="25" cx="1395.29" cy="-92.46" fill="url(&quot;#SvgjsRadialGradient1154&quot;)"></circle><circle r="25" cx="1442.27" cy="495.24" fill="url(&quot;#SvgjsRadialGradient1154&quot;)"></circle><circle r="25" cx="1401.18" cy="653.84" fill="url(&quot;#SvgjsRadialGradient1154&quot;)"></circle><circle r="5" cx="-63.92" cy="492.38" fill="#8b9ad9"></circle><circle r="5" cx="84.8" cy="539.82" fill="#8b9ad9"></circle><circle r="5" cx="73.14" cy="693.37" fill="#8b9ad9"></circle><circle r="5" cx="217.61" cy="517.03" fill="#8b9ad9"></circle><circle r="5" cx="228.57" cy="658.35" fill="#8b9ad9"></circle><circle r="5" cx="345.18" cy="505.28" fill="#8b9ad9"></circle><circle r="5" cx="379.62" cy="694.28" fill="#8b9ad9"></circle><circle r="5" cx="504.86" cy="649.74" fill="#8b9ad9"></circle><circle r="5" cx="656.22" cy="376.88" fill="#8b9ad9"></circle><circle r="5" cx="695.04" cy="650.33" fill="#8b9ad9"></circle><circle r="5" cx="816.61" cy="530.8" fill="#8b9ad9"></circle><circle r="5" cx="860.45" cy="692.61" fill="#8b9ad9"></circle><circle r="5" cx="1006.28" cy="262.38" fill="#8b9ad9"></circle><circle r="5" cx="973.6" cy="358.56" fill="#8b9ad9"></circle><circle r="5" cx="960.05" cy="548.63" fill="#8b9ad9"></circle><circle r="5" cx="960.24" cy="686.33" fill="#8b9ad9"></circle><circle r="5" cx="1121.01" cy="210.98" fill="#8b9ad9"></circle><circle r="5" cx="1108.02" cy="538.29" fill="#8b9ad9"></circle><circle r="5" cx="1136.7" cy="690.66" fill="#8b9ad9"></circle><circle r="5" cx="1290.85" cy="-56.23" fill="#8b9ad9"></circle><circle r="5" cx="1285.84" cy="92.71" fill="#8b9ad9"></circle><circle r="5" cx="1296.45" cy="194.61" fill="#8b9ad9"></circle><circle r="5" cx="1310.11" cy="362.96" fill="#8b9ad9"></circle><circle r="5" cx="1452.43" cy="60.01" fill="#8b9ad9"></circle><circle r="5" cx="1403.02" cy="221.66" fill="#8b9ad9"></circle><circle r="5" cx="1438.22" cy="388.29" fill="#8b9ad9"></circle><circle r="5" cx="1561.13" cy="-60.85" fill="#8b9ad9"></circle><circle r="5" cx="1597.65" cy="63.31" fill="#8b9ad9"></circle><circle r="5" cx="1553.72" cy="245.25" fill="#8b9ad9"></circle><circle r="5" cx="1602.54" cy="344.69" fill="#8b9ad9"></circle><circle r="5" cx="1578.99" cy="648.49" fill="#8b9ad9"></circle></g><defs><mask id="SvgjsMask1152"><rect width="1440" height="560" fill="#ffffff"></rect></mask><linearGradient x1="15.28%" y1="-39.29%" x2="84.72%" y2="139.29%" gradientUnits="userSpaceOnUse" id="SvgjsLinearGradient1153"><stop stop-color="#0e2a47" offset="0"></stop><stop stop-color="rgba(0, 23, 52, 1)" offset="1"></stop></linearGradient><radialGradient id="SvgjsRadialGradient1154"><stop stop-color="#ffffff" offset="0.1"></stop><stop stop-color="#1735b3" offset="0.2"></stop><stop stop-color="rgba(23, 53, 179, 0)" offset="1"></stop></radialGradient></defs></svg>