<svg width="249" height="79" viewBox="0 0 249 79" fill="none" xmlns="http://www.w3.org/2000/svg">
<g clip-path="url(#clip0_235_3001)">
<path d="M8.98125 15.5394C8.70999 15.2706 8.57288 15.0283 8.57288 14.7034C8.57288 14.1095 9.0349 13.6546 9.63107 13.6546C9.95598 13.6546 10.257 13.7609 10.4746 14.0032C11.2884 14.9456 12.4569 15.3503 14.1142 15.3503C16.0428 15.3503 17.8909 14.4877 17.8909 12.2543C17.8909 10.3429 15.9087 9.6427 13.8966 9.04889C11.4792 8.34873 8.87096 7.24383 8.87096 4.31025C8.87096 1.56278 11.0708 0.00292969 14.1142 0.00292969C15.9355 0.00292969 17.1576 0.487429 17.9446 0.892163C18.2963 1.08124 18.7315 1.40325 18.7315 1.97047C18.7315 2.53769 18.3798 3.01923 17.6733 3.01923C17.3752 3.01923 17.0474 2.85675 16.8596 2.72381C16.4244 2.45497 15.3662 1.99706 14.1142 1.99706C12.2929 1.99706 10.9635 2.7504 10.9635 4.23344C10.9635 5.9026 12.4569 6.46982 14.2782 7.00749C16.94 7.81401 20.0103 8.9189 20.0103 12.2572C20.0103 15.5955 17.0474 17.3474 14.1142 17.3474C11.6401 17.3474 9.9828 16.6207 8.97827 15.5424L8.98125 15.5394Z" fill="url(#paint0_linear_235_3001)"/>
<path d="M25.6083 11.1494V1.02218C25.6083 0.375192 26.0703 0 26.6396 0C27.209 0 27.671 0.378146 27.671 1.02218V11.1464C27.671 14.0003 29.2747 15.3474 31.7726 15.3474C34.2705 15.3474 35.8742 14.0003 35.8742 11.1464V1.02218C35.8742 0.375192 36.3362 0 36.9056 0C37.4749 0 37.9369 0.378146 37.9369 1.02218V11.1464C37.9369 15.4538 35.2184 17.3415 31.7696 17.3415C28.3208 17.3415 25.6023 15.4567 25.6023 11.1464L25.6083 11.1494Z" fill="url(#paint1_linear_235_3001)"/>
<path d="M44.6825 16.3194V1.18466C44.6825 0.511088 44.9806 0 45.6334 0C46.0686 0 46.3935 0.295426 46.6647 0.620396L52.8321 8.48465L58.9994 0.620396C59.2706 0.298381 59.5985 0 60.0307 0C60.6835 0 60.9816 0.537676 60.9816 1.18466V16.3194C60.9816 16.9663 60.5196 17.3415 59.9503 17.3415C59.3809 17.3415 58.9189 16.9634 58.9189 16.3194V4.01189L53.5922 10.7978C53.4014 11.0401 53.1838 11.2026 52.8321 11.2026C52.4803 11.2026 52.2627 11.0401 52.072 10.7978L46.7452 4.01189V16.3194C46.7452 16.9663 46.2832 17.3415 45.7139 17.3415C45.1445 17.3415 44.6825 16.9634 44.6825 16.3194Z" fill="url(#paint2_linear_235_3001)"/>
<path d="M67.9956 16.3194V1.18466C67.9956 0.511088 68.2937 0 68.9465 0C69.3817 0 69.7066 0.295426 69.9779 0.620396L76.1452 8.48465L82.3125 0.620396C82.5838 0.298381 82.9116 0 83.3439 0C83.9967 0 84.2947 0.537676 84.2947 1.18466V16.3194C84.2947 16.9663 83.8327 17.3415 83.2634 17.3415C82.694 17.3415 82.232 16.9634 82.232 16.3194V4.01189L76.9053 10.7978C76.7145 11.0401 76.4969 11.2026 76.1452 11.2026C75.7934 11.2026 75.5758 11.0401 75.3851 10.7978L70.0583 4.01189V16.3194C70.0583 16.9663 69.5963 17.3415 69.027 17.3415C68.4576 17.3415 67.9956 16.9634 67.9956 16.3194Z" fill="url(#paint3_linear_235_3001)"/>
<path d="M91.3086 16.3194V1.02218C91.3086 0.375192 91.7706 0 92.34 0C92.9093 0 93.3713 0.378146 93.3713 1.02218V16.3164C93.3713 16.9634 92.9093 17.3386 92.34 17.3386C91.7706 17.3386 91.3086 16.9604 91.3086 16.3164V16.3194Z" fill="url(#paint4_linear_235_3001)"/>
<path d="M104.266 16.3194V2.26303H99.4284C98.8024 2.26303 98.4238 1.80511 98.4238 1.26744C98.4238 0.729762 98.8054 0.271851 99.4284 0.271851H111.14C111.766 0.271851 112.145 0.729762 112.145 1.26744C112.145 1.80511 111.763 2.26303 111.14 2.26303H106.332V16.3194C106.332 16.9664 105.87 17.3416 105.301 17.3416C104.731 17.3416 104.269 16.9634 104.269 16.3194H104.266Z" fill="url(#paint5_linear_235_3001)"/>
<path d="M0 70.7872V32.8101C0 32.4438 0.244427 32.2015 0.614049 32.2015C0.983671 32.2015 1.2281 32.4438 1.2281 32.8101V70.7872C1.2281 71.1535 0.983671 71.3958 0.614049 71.3958C0.244427 71.3958 0 71.1535 0 70.7872Z" fill="white"/>
<path d="M8.19128 70.7872V32.8722C8.19128 32.6299 8.25388 32.2016 8.68312 32.2016C8.92755 32.2016 9.17496 32.4438 9.48198 32.8101L37.9131 66.7694C38.8341 67.8654 39.5108 68.7783 39.7552 69.1417V32.8072C39.7552 32.4409 39.9996 32.1986 40.3693 32.1986C40.7389 32.1986 40.9833 32.4409 40.9833 32.8072V70.7222C40.9833 70.9645 40.9207 71.3928 40.4915 71.3928C40.247 71.3928 39.9996 71.1506 39.6926 70.7843L10.7727 36.2194C10.2212 35.5487 9.66679 34.819 9.42236 34.4557V70.7902C9.42236 71.1565 9.17794 71.3987 8.80831 71.3987C8.43869 71.3987 8.19427 71.1565 8.19427 70.7902L8.19128 70.7872Z" fill="white"/>
<path d="M45.9583 51.7381C45.9583 40.6005 54.0631 32.2015 64.6868 32.2015C75.3104 32.2015 83.4779 40.6005 83.4779 51.7381C83.4779 62.8757 75.373 71.3958 64.6868 71.3958C54.0005 71.3958 45.9583 62.9377 45.9583 51.7381ZM82.1901 51.7381C82.1901 41.2091 74.6993 33.4187 64.6897 33.4187C54.6801 33.4187 47.2489 41.2091 47.2489 51.7381C47.2489 62.2671 54.7398 70.1786 64.6897 70.1786C74.6397 70.1786 82.1901 62.3262 82.1901 51.7381Z" fill="white"/>
<path d="M146.406 79.0001C145.962 79.0001 145.64 78.7844 145.455 78.356L123.096 20.5795L101.393 76.9173C101.151 77.5141 100.74 77.6381 100.436 77.6381C100.132 77.6381 99.7204 77.5141 99.4819 76.9232L78.0379 20.4554C77.9991 20.3727 77.8859 20.1186 77.8859 19.8852C77.8859 19.3653 78.3062 18.9753 78.8665 18.9753C79.3107 18.9753 79.6326 19.191 79.8174 19.6193L100.442 74.1226L122.142 17.7936C122.384 17.1968 122.795 17.0728 123.099 17.0728C123.403 17.0728 123.814 17.1968 124.053 17.7877L147.241 77.5347C147.253 77.5554 147.387 77.8361 147.387 78.0901C147.387 78.6101 146.966 79.0001 146.406 79.0001Z" fill="#0099FF"/>
<path d="M99.8247 60.1548L89.4872 33.1735C89.4246 33.0524 89.365 32.8692 89.365 32.7481C89.365 32.4438 89.6094 32.2015 89.979 32.2015C90.1013 32.2015 90.4083 32.2015 90.5931 32.627L100.439 58.5122L110.368 32.627C110.553 32.2015 110.86 32.2015 110.982 32.2015C111.352 32.2015 111.596 32.4438 111.596 32.7481C111.596 32.8692 111.533 33.0524 111.474 33.2355L101.053 60.1548C100.931 60.4591 100.746 60.6423 100.439 60.6423C100.132 60.6423 99.9469 60.4591 99.8247 60.1548Z" fill="white"/>
<path d="M124.306 32.689L138.859 70.4238C138.921 70.5449 138.981 70.7281 138.981 70.8492C138.981 71.1535 138.736 71.3958 138.367 71.3958C138.245 71.3958 137.938 71.3958 137.753 70.9704L123.689 34.3316L109.626 70.9704C109.441 71.3958 109.134 71.3958 109.012 71.3958C108.642 71.3958 108.398 71.1535 108.398 70.8492C108.398 70.7281 108.46 70.5449 108.52 70.3618L123.072 32.689C123.194 32.3847 123.379 32.2015 123.686 32.2015C123.993 32.2015 124.178 32.3847 124.3 32.689H124.306Z" fill="white"/>
<path d="M196.803 32.689L211.355 70.4238C211.418 70.5449 211.477 70.7281 211.477 70.8492C211.477 71.1535 211.233 71.3958 210.863 71.3958C210.741 71.3958 210.434 71.3958 210.249 70.9704L196.186 34.3316L182.122 70.9704C181.937 71.3958 181.63 71.3958 181.508 71.3958C181.139 71.3958 180.894 71.1535 180.894 70.8492C180.894 70.7281 180.957 70.5449 181.016 70.3618L195.569 32.689C195.691 32.3847 195.876 32.2015 196.183 32.2015C196.49 32.2015 196.675 32.3847 196.797 32.689H196.803Z" fill="white"/>
<path d="M161.799 77.4816C161.677 77.3605 161.614 77.1153 161.614 76.9941C161.614 76.6898 161.859 76.3856 162.228 76.3856C162.473 76.3856 162.598 76.5067 162.78 76.6898C163.209 77.1773 163.945 77.4195 164.622 77.4195C165.728 77.4195 166.401 76.811 166.401 76.0813C166.401 75.3516 165.787 74.743 164.622 74.743C164.07 74.743 163.456 74.9852 163.149 74.9852C162.72 74.9852 162.535 74.743 162.535 74.4978C162.535 74.2526 162.72 73.8272 162.842 73.5849L163.826 71.3928C152.833 71.2097 144.606 62.8107 144.606 51.7352C144.606 40.6596 153.017 32.1986 164.133 32.1986C167.817 32.1986 172.545 33.7821 175.001 36.0332C175.186 36.2164 175.245 36.3996 175.245 36.5207C175.245 36.825 175.001 37.1293 174.631 37.1293C174.447 37.1293 174.324 37.0672 174.08 36.887C171.809 34.9402 167.632 33.4187 164.133 33.4187C153.694 33.4187 145.896 41.2091 145.896 51.7381C145.896 62.2671 153.694 70.1786 164.133 70.1786C168.983 70.1786 173.099 68.7192 176.229 66.1608C176.474 65.9777 176.599 65.9186 176.781 65.9186C177.15 65.9186 177.395 66.2229 177.395 66.5272C177.395 66.6483 177.332 66.8315 177.15 67.0146C173.836 69.8153 169.475 71.1535 165.176 71.3958L164.07 73.5879C164.255 73.5258 164.5 73.5258 164.684 73.5258C166.527 73.5258 167.692 74.6219 167.692 76.0813C167.692 77.5407 166.464 78.6367 164.622 78.6367C163.579 78.6367 162.473 78.3324 161.796 77.4816H161.799Z" fill="white"/>
<path d="M196.311 27.3949C195.512 27.0906 194.713 26.7863 193.61 26.7863C193.181 26.7863 192.567 26.9075 192.382 27.1527C192.382 27.5781 192.138 27.9444 191.646 27.9444C191.217 27.9444 190.969 27.5781 190.969 27.2147C190.969 25.9976 192.567 25.6312 193.548 25.6312C194.838 25.6312 195.697 25.9355 196.555 26.2398C197.354 26.5441 198.153 26.8484 199.256 26.8484C199.685 26.8484 200.299 26.7273 200.484 26.4821C200.484 26.0566 200.728 25.6903 201.22 25.6903C201.65 25.6903 201.897 26.0566 201.897 26.42C201.897 27.6372 200.299 28.0035 199.319 28.0035C198.028 28.0035 197.169 27.6992 196.311 27.3949Z" fill="white"/>
<path d="M211.48 51.7381C211.48 40.6005 219.585 32.2015 230.209 32.2015C240.833 32.2015 249 40.6005 249 51.7381C249 62.8757 240.895 71.3958 230.209 71.3958C219.523 71.3958 211.48 62.9377 211.48 51.7381ZM247.709 51.7381C247.709 41.2091 240.218 33.4187 230.209 33.4187C220.199 33.4187 212.768 41.2091 212.768 51.7381C212.768 62.2671 220.259 70.1786 230.209 70.1786C240.159 70.1786 247.709 62.3262 247.709 51.7381Z" fill="white"/>
</g>
<defs>
<linearGradient id="paint0_linear_235_3001" x1="14.2931" y1="18.2455" x2="14.2931" y2="2.52883" gradientUnits="userSpaceOnUse">
<stop stop-color="#E7E3E0"/>
<stop offset="0.06" stop-color="#D8D4D2"/>
<stop offset="0.19" stop-color="#B2ADAF"/>
<stop offset="0.26" stop-color="#989398"/>
<stop offset="0.52" stop-color="#F8F8F8"/>
<stop offset="0.59" stop-color="#E9E9E9"/>
<stop offset="0.71" stop-color="#C4C2C3"/>
<stop offset="0.88" stop-color="#8C878A"/>
<stop offset="1" stop-color="#B2B2B2"/>
</linearGradient>
<linearGradient id="paint1_linear_235_3001" x1="31.7756" y1="18.2455" x2="31.7756" y2="2.52885" gradientUnits="userSpaceOnUse">
<stop stop-color="#E7E3E0"/>
<stop offset="0.06" stop-color="#D8D4D2"/>
<stop offset="0.19" stop-color="#B2ADAF"/>
<stop offset="0.26" stop-color="#989398"/>
<stop offset="0.52" stop-color="#F8F8F8"/>
<stop offset="0.59" stop-color="#E9E9E9"/>
<stop offset="0.71" stop-color="#C4C2C3"/>
<stop offset="0.88" stop-color="#8C878A"/>
<stop offset="1" stop-color="#B2B2B2"/>
</linearGradient>
<linearGradient id="paint2_linear_235_3001" x1="52.835" y1="18.2455" x2="52.835" y2="2.52885" gradientUnits="userSpaceOnUse">
<stop stop-color="#E7E3E0"/>
<stop offset="0.06" stop-color="#D8D4D2"/>
<stop offset="0.19" stop-color="#B2ADAF"/>
<stop offset="0.26" stop-color="#989398"/>
<stop offset="0.52" stop-color="#F8F8F8"/>
<stop offset="0.59" stop-color="#E9E9E9"/>
<stop offset="0.71" stop-color="#C4C2C3"/>
<stop offset="0.88" stop-color="#8C878A"/>
<stop offset="1" stop-color="#B2B2B2"/>
</linearGradient>
<linearGradient id="paint3_linear_235_3001" x1="76.1452" y1="18.2455" x2="76.1452" y2="2.52885" gradientUnits="userSpaceOnUse">
<stop stop-color="#E7E3E0"/>
<stop offset="0.06" stop-color="#D8D4D2"/>
<stop offset="0.19" stop-color="#B2ADAF"/>
<stop offset="0.26" stop-color="#989398"/>
<stop offset="0.52" stop-color="#F8F8F8"/>
<stop offset="0.59" stop-color="#E9E9E9"/>
<stop offset="0.71" stop-color="#C4C2C3"/>
<stop offset="0.88" stop-color="#8C878A"/>
<stop offset="1" stop-color="#B2B2B2"/>
</linearGradient>
<linearGradient id="paint4_linear_235_3001" x1="92.34" y1="18.2455" x2="92.34" y2="2.52885" gradientUnits="userSpaceOnUse">
<stop stop-color="#E7E3E0"/>
<stop offset="0.06" stop-color="#D8D4D2"/>
<stop offset="0.19" stop-color="#B2ADAF"/>
<stop offset="0.26" stop-color="#989398"/>
<stop offset="0.52" stop-color="#F8F8F8"/>
<stop offset="0.59" stop-color="#E9E9E9"/>
<stop offset="0.71" stop-color="#C4C2C3"/>
<stop offset="0.88" stop-color="#8C878A"/>
<stop offset="1" stop-color="#B2B2B2"/>
</linearGradient>
<linearGradient id="paint5_linear_235_3001" x1="105.286" y1="18.2456" x2="105.286" y2="2.52891" gradientUnits="userSpaceOnUse">
<stop stop-color="#E7E3E0"/>
<stop offset="0.06" stop-color="#D8D4D2"/>
<stop offset="0.19" stop-color="#B2ADAF"/>
<stop offset="0.26" stop-color="#989398"/>
<stop offset="0.52" stop-color="#F8F8F8"/>
<stop offset="0.59" stop-color="#E9E9E9"/>
<stop offset="0.71" stop-color="#C4C2C3"/>
<stop offset="0.88" stop-color="#8C878A"/>
<stop offset="1" stop-color="#B2B2B2"/>
</linearGradient>
<clipPath id="clip0_235_3001">
<rect width="249" height="79" fill="white"/>
</clipPath>
</defs>
</svg>
