<svg width="25" height="24" viewBox="0 0 25 24" fill="none" xmlns="http://www.w3.org/2000/svg">
<mask id="mask0_235_2283" style="mask-type:alpha" maskUnits="userSpaceOnUse" x="0" y="0" width="25" height="24">
<rect x="0.5" width="24" height="24" fill="#D9D9D9"/>
</mask>
<g mask="url(#mask0_235_2283)">
<path d="M19.223 12.8385L5.2655 18.723C4.96417 18.8435 4.67792 18.8176 4.40675 18.6453C4.13558 18.4728 4 18.2224 4 17.8943V6.10576C4 5.7776 4.13558 5.52726 4.40675 5.35476C4.67792 5.18243 4.96417 5.15651 5.2655 5.27701L19.223 11.1615C19.5948 11.3257 19.7807 11.6052 19.7807 12C19.7807 12.3948 19.5948 12.6743 19.223 12.8385ZM5.5 17L17.35 12L5.5 7.00001V10.6923L10.923 12L5.5 13.3078V17Z" fill="white"/>
</g>
</svg>
