<svg width="185" height="24" viewBox="0 0 185 24" fill="none" xmlns="http://www.w3.org/2000/svg">
<path d="M184.406 22.6075H178.643V23.5319H184.406V22.6075Z" fill="white"/>
<path d="M184.406 0.480286H178.643V1.40475H184.406V0.480286Z" fill="white"/>
<path d="M184.406 6.01501H178.643V6.93948H184.406V6.01501Z" fill="white"/>
<path d="M184.406 11.5438H178.643V12.4683H184.406V11.5438Z" fill="white"/>
<path d="M184.406 17.0786H178.643V18.0031H184.406V17.0786Z" fill="white"/>
<path d="M57.6231 22.6076H51.8602V23.532H57.6231V22.6076Z" fill="white"/>
<path d="M57.6231 0.480286H51.8602V1.40475H57.6231V0.480286Z" fill="white"/>
<path d="M57.6231 6.01511H51.8602V6.93957H57.6231V6.01511Z" fill="white"/>
<path d="M57.6231 11.5439H51.8602V12.4683H57.6231V11.5439Z" fill="white"/>
<path d="M57.6231 17.0786H51.8602V18.0031H57.6231V17.0786Z" fill="white"/>
<path d="M84.9791 5.24062C84.9611 5.93697 84.877 6.62731 84.727 7.30565H78.2737C78.3758 6.93347 78.4298 6.54927 78.4298 6.15908C78.4298 4.88644 77.6014 4.12406 75.9506 4.12406C73.9156 4.12406 72.3548 5.42671 72.3548 7.10755C72.3548 7.86994 72.6729 8.47023 74.3598 8.92046L78.4298 10.031C79.6424 10.3252 80.807 10.7814 81.8935 11.3937C83.1182 12.1621 83.8265 13.5368 83.7365 14.9835C83.7065 17.4387 82.6019 19.7619 80.717 21.3347C78.748 22.9555 75.6924 24 71.8445 24C66.1537 24 63.1942 22.031 63.1942 18.1231C63.1942 17.4687 63.2662 16.8204 63.4163 16.1841H69.8095C69.7254 16.5143 69.6834 16.8564 69.6834 17.1986C69.6834 18.8794 70.764 19.7379 72.925 19.7379C75.5003 19.7379 76.9651 18.3752 76.9651 16.5623C76.9651 15.7699 76.4908 15.2296 75.3743 14.9115L70.1276 13.4827C66.6939 12.5643 65.5474 10.8774 65.5474 8.5903C65.5594 7.26963 65.9196 5.97899 66.5979 4.84442C68.2487 1.999 71.7485 0 76.899 0C82.3678 0 84.9791 1.77689 84.9791 5.24062Z" fill="white"/>
<path d="M107.941 0.480286L107.01 4.89849H95.9948L94.9683 9.7009H105.341L104.381 14.1191H94.0078L92.9813 19.0476H104.249L103.288 23.5318H85.6816L90.5861 0.480286H107.941Z" fill="white"/>
<path d="M121.975 0.480286L126.123 17.6249L129.701 0.480286H135.29L130.403 23.5318H121.783L117.635 5.61885L113.901 23.5318H108.282L113.163 0.480286H121.975Z" fill="white"/>
<path d="M154.77 0.480286L158.984 23.5318H151.768L151.162 18.9035H141.935L139.378 23.5318H132.991L146.978 0.480286H154.77ZM149.565 4.98254L144.331 14.6534H150.586L149.661 4.98254H149.565Z" fill="white"/>
<path d="M172.881 0.480286L167.995 23.5318H161.415L166.308 0.480286H172.881Z" fill="white"/>
<path d="M7.19187 6.37519C7.20988 6.81942 7.08981 7.26364 6.84969 7.64183C6.62758 7.984 6.32744 8.26014 5.97326 8.46424C5.60107 8.67434 5.19887 8.82442 4.78466 8.90246C4.36445 8.9865 3.93224 9.03452 3.50603 9.03452C3.03779 9.03452 2.56955 8.9925 2.11332 8.89045C1.71713 8.80641 1.33893 8.65033 1.00277 8.42222C0.696612 8.21211 0.444491 7.92397 0.276407 7.5878C0.0903142 7.19761 -0.00573787 6.77139 0.000265134 6.33918H2.14334C2.07731 7.02352 2.57555 7.63582 3.2659 7.70186C3.36795 7.71386 3.47 7.70786 3.56605 7.69585C3.74014 7.69585 3.91422 7.67184 4.08231 7.62982C4.24439 7.5878 4.40047 7.52177 4.53854 7.42572C4.67061 7.33567 4.77866 7.22162 4.8627 7.08355C4.94674 6.93347 4.99477 6.76539 4.98877 6.5913C4.98877 6.45924 4.95875 6.33317 4.89872 6.21912C4.83869 6.11706 4.74864 6.02702 4.64659 5.95498C4.52653 5.87694 4.40047 5.81091 4.2684 5.76289C4.11833 5.70286 3.96225 5.64883 3.80017 5.60681L2.4675 5.22262C2.10732 5.12057 1.75315 4.9885 1.41097 4.82642C1.14684 4.70036 0.906721 4.53828 0.696616 4.33417C0.522529 4.16609 0.384461 3.95598 0.294416 3.72787C0.210374 3.49375 0.162345 3.24763 0.168348 3.00151C0.156342 2.59931 0.2584 2.20311 0.456499 1.85493C0.648595 1.53677 0.918732 1.26664 1.23689 1.06854C1.58507 0.852432 1.96926 0.702357 2.37146 0.618315C2.80968 0.522267 3.2599 0.474243 3.71013 0.474243C4.14834 0.474243 4.58656 0.516264 5.01278 0.606309C5.37896 0.678345 5.73314 0.822417 6.04529 1.02652C6.33344 1.21862 6.56755 1.47674 6.72964 1.7829C6.90973 2.13707 6.99377 2.52727 6.98176 2.92347H4.83869C4.86871 2.30516 4.39447 1.77689 3.77616 1.74088C3.71013 1.74088 3.64409 1.74088 3.57806 1.74688C3.42198 1.74688 3.2659 1.76489 3.11582 1.80691C2.97776 1.84293 2.83968 1.90296 2.71962 1.981C2.60557 2.05904 2.51552 2.16109 2.44949 2.28115C2.37746 2.40721 2.34744 2.55728 2.34744 2.70136C2.35945 2.92347 2.47951 3.12157 2.67161 3.22962C3.01378 3.43973 3.39196 3.60181 3.78216 3.70386L4.82068 4.02202C5.14484 4.13007 5.457 4.23813 5.74514 4.35819C6.01528 4.46624 6.2734 4.61631 6.50152 4.7964C6.71763 4.97049 6.88571 5.1866 7.00577 5.43272C7.13783 5.72687 7.19787 6.04503 7.18586 6.36319L7.19187 6.37519Z" fill="white"/>
<path d="M10.1157 3.18155H8.1227V8.93242H10.1157V3.18155Z" fill="white"/>
<path d="M16.7069 7.1494C16.7189 7.46155 16.6288 7.77371 16.4547 8.03184C16.2867 8.27196 16.0585 8.47006 15.8004 8.61413C15.5123 8.77021 15.2001 8.87826 14.8759 8.93229C14.5278 8.99832 14.1736 9.02833 13.8254 9.02833C13.4772 9.02833 13.1231 8.99832 12.7809 8.94429C12.4627 8.89627 12.1506 8.78822 11.8684 8.63814C11.6043 8.49407 11.3882 8.28396 11.2261 8.03184C11.052 7.73769 10.968 7.40152 10.98 7.05935H12.913C12.9069 7.32949 12.991 7.59362 13.1591 7.80372C13.3452 7.98381 13.6033 8.07386 13.8614 8.04985C13.9815 8.04985 14.1016 8.03784 14.2156 8.00182C14.3237 7.97181 14.4317 7.92979 14.5218 7.86375C14.6118 7.80372 14.6838 7.72568 14.7379 7.63564C14.7919 7.53959 14.8219 7.42553 14.8159 7.31748C14.8159 7.14339 14.7199 6.98131 14.5698 6.89127C14.3297 6.7532 14.0655 6.65115 13.7894 6.60312L12.8649 6.38701C12.6428 6.33299 12.4267 6.26695 12.2106 6.18892C12.0125 6.11688 11.8264 6.01483 11.6583 5.88877C11.5022 5.76871 11.3702 5.61263 11.2741 5.43854C11.1721 5.24044 11.1241 5.01833 11.1301 4.79622C11.1181 4.48406 11.2081 4.17191 11.3882 3.91378C11.5563 3.68566 11.7784 3.49357 12.0365 3.3675C12.3067 3.22944 12.5948 3.13939 12.8949 3.08536C13.1891 3.03134 13.4832 3.00732 13.7834 3.00732C14.1016 3.00732 14.4137 3.03734 14.7319 3.08536C15.038 3.13339 15.3322 3.22944 15.6023 3.37351C15.8604 3.51158 16.0825 3.70367 16.2506 3.94379C16.4307 4.21393 16.5268 4.53209 16.5268 4.86225H14.6598C14.6718 4.61613 14.5818 4.38201 14.4137 4.20192C14.2456 4.04584 14.0175 3.9618 13.7894 3.97381C13.5853 3.97381 13.3872 4.02183 13.2071 4.12388C13.027 4.21393 12.919 4.40602 12.937 4.60412C12.931 4.74819 12.991 4.88626 13.099 4.98231C13.2431 5.09037 13.4052 5.1624 13.5793 5.19842L14.8219 5.49257C15.3382 5.58261 15.8244 5.78671 16.2506 6.09287C16.5568 6.357 16.7249 6.74719 16.7008 7.1494H16.7069Z" fill="white"/>
<path d="M20.134 4.43015V6.81935C20.11 7.06547 20.164 7.3116 20.2901 7.5277C20.4702 7.69579 20.7163 7.76782 20.9564 7.73181C21.0405 7.73181 21.1305 7.73181 21.2266 7.7198C21.3226 7.70779 21.4187 7.70179 21.5147 7.68378V8.9264C21.2866 8.95642 21.0645 8.98043 20.8544 8.99844C20.6443 9.01645 20.4342 9.02845 20.2301 9.02845C19.9239 9.02845 19.6238 9.01045 19.3236 8.95642C19.0955 8.9204 18.8794 8.82435 18.6993 8.68628C18.5312 8.54821 18.4052 8.36812 18.3391 8.15802C18.2551 7.88188 18.2191 7.59374 18.2251 7.29959V4.43015H17.1445V3.18753H18.2251V1.42865L20.14 1.41064V3.18753H21.5267V4.43015H20.134Z" fill="white"/>
<path d="M24.0061 6.35701C24.0061 6.57312 24.0301 6.78322 24.0721 6.99333C24.1141 7.17942 24.1862 7.35351 24.2882 7.50959C24.3843 7.65366 24.5163 7.77372 24.6724 7.85776C24.8525 7.94781 25.0506 7.98983 25.2487 7.98382C25.765 8.06787 26.2572 7.71969 26.3413 7.19743C26.3473 7.15541 26.3533 7.11339 26.3533 7.07137H28.2442C28.2142 7.30549 28.1302 7.5276 28.0101 7.7317C27.8901 7.9418 27.74 8.1339 27.5599 8.30198C27.2657 8.57212 26.9176 8.76421 26.5334 8.86627C26.1071 8.98032 25.6689 9.03435 25.2247 9.02835C24.7265 9.04035 24.2282 8.96231 23.748 8.80624C23.0276 8.55411 22.4693 7.97182 22.2412 7.24545C22.1212 6.87927 22.0671 6.49508 22.0731 6.11089C22.0251 5.27647 22.3132 4.45406 22.8715 3.83575C23.5198 3.24145 24.3783 2.9413 25.2547 3.00734C25.843 2.99533 26.4313 3.12139 26.9596 3.38552C27.4458 3.64365 27.83 4.06987 28.0341 4.58012C28.1482 4.83825 28.2202 5.11439 28.2502 5.39653C28.2802 5.71469 28.2982 6.03885 28.2982 6.35701H24.0061ZM26.3833 5.37852C26.4073 5.02434 26.3053 4.67017 26.1072 4.37602C25.897 4.1299 25.5849 3.99783 25.2667 4.02184C24.9246 4.00383 24.5944 4.1419 24.3663 4.39403C24.1382 4.67017 24.0181 5.01834 24.0361 5.37852H26.3833Z" fill="white"/>
<path d="M37.2007 8.93243V5.69081C37.2007 5.51072 37.1887 5.33063 37.1647 5.15054C37.1467 4.99446 37.0986 4.84438 37.0266 4.70631C36.9606 4.58025 36.8585 4.4782 36.7325 4.41217C36.5764 4.33413 36.3963 4.29811 36.2222 4.30411C36.0421 4.29811 35.856 4.33413 35.6939 4.41217C35.5619 4.4782 35.4598 4.58625 35.3878 4.71232C35.3097 4.85639 35.2617 5.00646 35.2377 5.16854C35.2077 5.35464 35.1957 5.54673 35.1957 5.73883V8.93843H33.2027V5.70281C33.2027 5.54073 33.1967 5.37865 33.1787 5.21657C33.1667 5.0785 33.1307 4.94043 33.0766 4.81437C33.0166 4.66429 32.9146 4.53823 32.7885 4.44218C32.6264 4.34013 32.4403 4.29211 32.2482 4.29811C32.0561 4.29211 31.864 4.34013 31.6959 4.44218C31.5459 4.53823 31.4258 4.6703 31.3478 4.82637C31.2877 4.95244 31.2457 5.0845 31.2277 5.21657C31.2097 5.37865 31.1977 5.54673 31.1977 5.70881V8.93243H29.2047V4.02797C29.2047 3.88991 29.2047 3.75784 29.2047 3.63178C29.2047 3.50571 29.1927 3.35564 29.1867 3.18755H31.1137L31.1737 4.10001C31.3778 3.77585 31.6659 3.51172 32.0081 3.33763C32.3623 3.18155 32.7525 3.10351 33.1427 3.10951C33.5269 3.09751 33.911 3.18155 34.2592 3.34963C34.5894 3.52972 34.8475 3.82387 34.9856 4.17805C35.1957 3.82387 35.5019 3.54173 35.868 3.34963C36.2402 3.18155 36.6484 3.09751 37.0566 3.10351C37.4768 3.0855 37.8971 3.17555 38.2692 3.36764C38.5754 3.54173 38.8155 3.80586 38.9596 4.13003C39.1337 4.53823 39.2117 4.97645 39.1997 5.41467V8.93243H37.2007Z" fill="white"/>
<path d="M44.2242 8.91433C44.1882 8.78226 44.1582 8.64419 44.1402 8.50613C44.1222 8.37406 44.1041 8.22399 44.0921 8.0559C43.906 8.38006 43.6239 8.64419 43.2877 8.81228C42.9276 8.96235 42.5314 9.03439 42.1412 9.02238C41.859 9.02238 41.5829 8.98637 41.3127 8.91433C41.0726 8.8483 40.8505 8.74024 40.6584 8.59017C40.4723 8.44009 40.3283 8.254 40.2322 8.03789C40.1242 7.79177 40.0701 7.52764 40.0761 7.2575C40.0581 6.89732 40.1662 6.53714 40.3823 6.249C40.5984 5.99087 40.8745 5.78677 41.1867 5.6607C41.5469 5.51663 41.9191 5.42659 42.3033 5.39057C42.7175 5.34254 43.1377 5.32454 43.5519 5.32454H44.0861V4.95835C44.0861 4.83229 44.0741 4.71223 44.0441 4.58617C44.0201 4.47211 43.9721 4.36406 43.9001 4.27401C43.828 4.18397 43.738 4.10593 43.6359 4.0519C43.2877 3.89582 42.8795 3.95585 42.5794 4.19597C42.4413 4.39407 42.3693 4.63419 42.3813 4.88031H40.4303C40.4303 4.53814 40.5203 4.19597 40.7124 3.91383C40.8925 3.67971 41.1207 3.48762 41.3848 3.36155C41.6669 3.22349 41.9671 3.13344 42.2732 3.08542C42.5854 3.03739 42.8975 3.01338 43.2157 3.01338C43.6659 3.00738 44.1102 3.0494 44.5484 3.13944C44.8965 3.21148 45.2147 3.37956 45.4608 3.63169C45.6409 3.81778 45.779 4.03989 45.863 4.28001C45.9651 4.59817 46.0071 4.93434 46.0011 5.27051V7.08341C46.0011 7.41958 46.0011 7.72574 46.0131 8.01388C46.0191 8.32003 46.0491 8.62018 46.0911 8.92033H44.2182L44.2242 8.91433ZM44.0861 6.16496C43.9961 6.15895 43.906 6.15295 43.81 6.15295H43.5579C43.3778 6.15295 43.1977 6.17096 43.0176 6.20097C42.8375 6.23099 42.6694 6.28502 42.5013 6.36305C42.3513 6.43509 42.2192 6.53714 42.1112 6.66921C42.0031 6.80728 41.9491 6.98136 41.9551 7.16145C41.9491 7.38356 42.0391 7.59967 42.2132 7.74975C42.3873 7.89982 42.6094 7.97786 42.8375 7.97186C43.0536 7.97786 43.2697 7.92984 43.4618 7.82178C43.6179 7.72574 43.75 7.59367 43.846 7.43159C43.9421 7.2635 44.0021 7.07741 44.0321 6.88532C44.0681 6.67521 44.0861 6.4591 44.0861 6.249V6.16496Z" fill="white"/>
<path d="M25.1411 14.5513V16.5983H28.5448V17.979H25.1651V21.3707H23.0461V13.1406H28.7609V14.5513H25.1411Z" fill="white"/>
<path d="M31.7257 15.6196H29.7328V21.3705H31.7257V15.6196Z" fill="white"/>
<path d="M34.5478 18.8434C34.5478 19.0595 34.5718 19.2696 34.6138 19.4797C34.6558 19.6658 34.7279 19.8399 34.8299 19.996C34.926 20.14 35.058 20.2601 35.2081 20.3441C35.3882 20.4342 35.5863 20.4762 35.7844 20.4702C36.3367 20.5302 36.8289 20.128 36.8829 19.5817C36.8829 19.5517 36.8829 19.5217 36.8829 19.4917H38.7739C38.7439 19.7498 38.6598 19.996 38.5398 20.2181C38.4197 20.4282 38.2696 20.6203 38.0895 20.7884C37.7954 21.0585 37.4472 21.2506 37.063 21.3526C36.6368 21.4667 36.1986 21.5207 35.7544 21.5207C35.2561 21.5327 34.7579 21.4547 34.2776 21.2986C33.8874 21.1605 33.5453 20.9324 33.2691 20.6203C33.041 20.3621 32.8729 20.062 32.7709 19.7378C32.6568 19.3716 32.5968 18.9875 32.6028 18.6033C32.5548 17.7688 32.8429 16.9464 33.4072 16.3281C34.0555 15.7338 34.9139 15.4337 35.7904 15.4997C36.3787 15.4877 36.961 15.6138 37.4892 15.8719C37.9755 16.13 38.3597 16.5562 38.5638 17.0665C38.6778 17.3246 38.7499 17.6008 38.7799 17.8829C38.8099 18.2011 38.8279 18.5252 38.8279 18.8434H34.5358H34.5478ZM36.9249 17.8649C36.949 17.5107 36.8469 17.1565 36.6428 16.8624C36.4387 16.6163 36.1266 16.4842 35.8084 16.5082C35.4662 16.4902 35.1361 16.6283 34.9079 16.8804C34.6798 17.1565 34.5598 17.5047 34.5778 17.8649H36.9249Z" fill="white"/>
<path d="M46.097 18.411C46.097 18.8192 46.043 19.2214 45.941 19.6116C45.8449 19.9658 45.6829 20.296 45.4547 20.5901C45.2386 20.8723 44.9565 21.0944 44.6383 21.2505C44.2781 21.4185 43.8819 21.5026 43.4797 21.4966C43.1316 21.5086 42.7774 21.4366 42.4592 21.2985C42.1471 21.1364 41.8709 20.9083 41.6548 20.6321V23.5376H39.6618V16.7242C39.6618 16.5981 39.6618 16.4721 39.6558 16.334C39.6498 16.1959 39.6498 16.0699 39.6438 15.9498C39.6378 15.8297 39.6318 15.7157 39.6258 15.6256H41.5828L41.6068 16.4661C41.8169 16.1539 42.1051 15.8958 42.4352 15.7277C42.7774 15.5716 43.1496 15.4936 43.5278 15.4996C43.918 15.4936 44.3022 15.5656 44.6623 15.7217C44.9745 15.8598 45.2446 16.0699 45.4607 16.334C45.6768 16.6101 45.8389 16.9223 45.935 17.2645C46.043 17.6367 46.0971 18.0268 46.0911 18.417L46.097 18.411ZM44.056 18.4651C44.056 18.237 44.032 18.0088 43.996 17.7867C43.966 17.5766 43.894 17.3725 43.7979 17.1864C43.7079 17.0183 43.5818 16.8743 43.4197 16.7662C43.2516 16.6582 43.0475 16.5981 42.8434 16.6041C42.6333 16.5921 42.4232 16.6522 42.2431 16.7662C42.0871 16.8803 41.955 17.0243 41.8589 17.1924C41.7569 17.3785 41.6848 17.5826 41.6548 17.7927C41.6188 18.0208 41.5948 18.255 41.5948 18.4891C41.5948 18.7172 41.6128 18.9453 41.6428 19.1734C41.6728 19.3835 41.7329 19.5936 41.8229 19.7857C41.907 19.9598 42.027 20.1099 42.1831 20.2239C42.3512 20.338 42.5553 20.398 42.7654 20.392C42.9815 20.398 43.1916 20.344 43.3717 20.2239C43.5338 20.1099 43.6718 19.9598 43.7619 19.7857C43.8639 19.5936 43.936 19.3835 43.972 19.1674C44.014 18.9333 44.038 18.6992 44.038 18.4591L44.056 18.4651Z" fill="white"/>
<path d="M9.06517 0.480194H9.17322C9.69548 0.480194 10.1157 0.900404 10.1157 1.42267C10.1157 1.94493 9.69548 2.36514 9.17322 2.36514H9.06517C8.54291 2.36514 8.1227 1.94493 8.1227 1.42267C8.1227 0.900404 8.54291 0.480194 9.06517 0.480194Z" fill="white"/>
<path d="M30.6752 12.9003H30.7833C31.3055 12.9003 31.7257 13.3205 31.7257 13.8428C31.7257 14.3651 31.3055 14.7853 30.7833 14.7853H30.6752C30.153 14.7853 29.7328 14.3651 29.7328 13.8428C29.7328 13.3205 30.153 12.9003 30.6752 12.9003Z" fill="white"/>
</svg>
